<?xml version="1.0" encoding="UTF-8"?>
<svg id="Warstwa_1" xmlns="http://www.w3.org/2000/svg" version="1.1" viewBox="0 0 229.78 114.21">
  <!-- Generator: Adobe Illustrator 29.1.0, SVG Export Plug-In . SVG Version: 2.1.0 Build 142)  -->
  <defs>
    <style>
      .st0 {
        fill: #3e7f21;
      }
    </style>
  </defs>
  <g>
    <path class="st0" d="M.87,113.29v-17.37h2.51l4.49,8.61,1.76,3.81,1.74-3.81,4.51-8.61h2.52v17.37h-2.26v-9.59l.23-4.69-1.92,4.3-3.73,7.08h-2.2l-3.73-7.08-1.94-4.3.29,4.69v9.59H.87Z"/>
    <path class="st0" d="M26.74,104.58c0-5,3.4-8.92,8.4-8.92s8.4,3.91,8.4,8.92-3.37,8.97-8.4,8.97-8.4-3.91-8.4-8.97ZM41.21,104.58c0-3.94-2.07-6.79-6.04-6.79s-6.04,2.85-6.04,6.79,2.07,6.82,6.04,6.82,6.04-2.83,6.04-6.82Z"/>
    <path class="st0" d="M49.82,107.58l2.02-1.32c.23,3.03,1.58,5.13,4.51,5.13s3.81-1.32,3.81-5.29v-10.19h2.26v10.58c0,5.08-1.81,7.05-6.09,7.05-3.66,0-5.96-2.38-6.51-5.96Z"/>
    <path class="st0" d="M71.83,113.29v-17.37h11.87v2h-9.62v5.47h7.93v2h-7.93v5.91h9.62v2h-11.87Z"/>
    <path class="st0" d="M101.49,113.29v-1.79l7.88-10.55,2.51-3.16-2.41.13h-7.47v-2h12.18v1.79l-8.53,11.41-1.81,2.31,1.76-.13h9.1v2h-13.22Z"/>
    <path class="st0" d="M120.26,113.29l7-17.37h2.26l7,17.37h-2.49l-1.89-4.85h-7.6l-1.89,4.85h-2.38ZM125.32,106.44h6.04l-2.15-5.5-.86-2.72-.88,2.72-2.15,5.5Z"/>
    <path class="st0" d="M142.45,104.58c0-5,2.88-8.92,8.14-8.92,3.89,0,6.51,2.07,7.62,5.65l-2.02,1.32c-.57-2.9-2.28-4.85-5.57-4.85-3.97,0-5.78,2.83-5.78,6.79s1.81,6.79,5.78,6.79c3.29,0,5-1.94,5.57-4.85l2.02,1.32c-1.11,3.58-3.73,5.65-7.62,5.65-5.26,0-8.14-3.91-8.14-8.92Z"/>
    <path class="st0" d="M166.2,113.29v-17.37h2.26v17.37h-2.26Z"/>
    <path class="st0" d="M176.55,109.09l1.71-1.5c.8,2.83,3.5,3.84,5.68,3.84,1.94,0,3.58-.75,3.58-2.64,0-2-1.53-2.49-3.84-3.03l-1.63-.36c-2.31-.52-4.93-1.56-4.93-4.82s2.75-4.87,5.78-4.87,5.63,1.37,6.69,3.97l-1.89,1.5c-.83-2.36-2.59-3.32-4.85-3.32-1.92,0-3.34.96-3.34,2.57,0,1.74,1.27,2.38,3.27,2.88l1.89.47c2.46.6,5.16,1.56,5.16,4.98,0,3.01-2.51,4.82-5.88,4.82s-6.25-1.24-7.39-4.46Z"/>
    <path class="st0" d="M196.77,113.29v-1.79l7.88-10.55,2.51-3.16-2.41.13h-7.47v-2h12.18v1.79l-8.53,11.41-1.81,2.31,1.76-.13h9.1v2h-13.22Z"/>
    <path class="st0" d="M217.15,113.29v-17.37h11.87v2h-9.62v5.47h7.93v2h-7.93v5.91h9.62v2h-11.87Z"/>
  </g>
  <g>
    <path class="st0" d="M125.04,31.87v46.43h24.52c7.73-13.39,15.46-26.77,23.19-40.16V.49h-29.6c-6.04,10.46-12.08,20.92-18.12,31.38Z"/>
    <path class="st0" d="M137.02.48c-7.54,13.07-15.1,26.14-22.64,39.22-1.56-2.68-3.11-5.35-4.66-8.03v46.63h-47.83V.49h47.83v-.03c9.1,0,18.2.02,27.3.02Z"/>
    <path class="st0" d="M155.71,78.3h21.82c0-12.51,0-25.29,0-37.8-7.27,12.51-14.55,25.29-21.82,37.8Z"/>
  </g>
</svg>